<svg width="50" height="51" viewBox="0 0 50 51" fill="none" xmlns="http://www.w3.org/2000/svg">
<g clip-path="url(#clip0_1580_15398)">
<path d="M14.7431 13.7764C14.3833 14.1349 14.1932 14.6218 14.1932 15.1844C14.1932 16.0071 14.6184 16.9221 15.3306 17.632C16.0737 18.3727 16.9762 18.7628 17.7777 18.7628C18.3186 18.7628 18.8135 18.585 19.1822 18.2176C19.5421 17.8589 19.7322 17.372 19.7322 16.8095C19.7322 15.9868 19.307 15.0718 18.5948 14.3619C17.3502 13.1215 15.6583 12.8643 14.7431 13.7764ZM18.1504 17.1723C17.9056 17.416 17.0874 17.3094 16.3624 16.5868C15.8432 16.0693 15.6583 15.5231 15.6583 15.1844C15.6583 15.0719 15.6785 14.9177 15.775 14.8216C16.0196 14.5777 16.8379 14.6845 17.5629 15.407C18.0821 15.9245 18.267 16.4706 18.267 16.8094C18.267 16.9218 18.2468 17.0761 18.1504 17.1723Z" fill="#FF0066"/>
<path d="M35.4602 36.3863C36.001 36.3863 36.496 36.2085 36.8647 35.8411C37.2245 35.4824 37.4146 34.9955 37.4146 34.4329C37.4146 33.6103 36.9893 32.6952 36.2772 31.9854C35.0327 30.745 33.3407 30.4876 32.4256 31.3999C32.0657 31.7584 31.8756 32.2454 31.8756 32.808C31.8756 33.6307 32.3008 34.5457 33.0131 35.2556C33.7563 35.9962 34.6586 36.3863 35.4602 36.3863ZM33.4574 32.4451C33.7022 32.2011 34.5204 32.308 35.2454 33.0306C35.7645 33.5479 35.9494 34.0941 35.9494 34.4328C35.9494 34.5453 35.9292 34.6996 35.8328 34.7957C35.588 35.0395 34.7698 34.9328 34.0448 34.2102C33.5257 33.6928 33.3408 33.1466 33.3408 32.8079C33.3408 32.6954 33.361 32.5412 33.4574 32.4451Z" fill="#FF0066"/>
<path d="M41.9342 20.8495C43.9376 20.423 45.75 19.4145 47.1754 17.9332C48.9018 16.1389 49.9046 13.7689 49.9994 11.2598C50.0352 10.3089 48.5711 10.2523 48.5353 11.204C48.4543 13.3503 47.5973 15.3767 46.1221 16.9099C43.8498 19.2714 40.8246 19.3334 37.9539 20.4911C34.658 21.8204 31.7475 23.68 29.537 25.8689C28.2986 27.0953 26.544 26.2198 25.4179 25.0974C24.498 24.1805 24.0316 23.344 24.0316 22.611C24.0316 22.0616 24.2917 21.5353 24.8268 21.002C24.8302 20.9986 24.8335 20.9952 24.8368 20.9918C24.9944 20.8285 28.7179 16.923 30.7584 10.7874C31.5265 8.47808 31.7707 6.50748 33.586 4.69823C35.2699 3.01991 37.5105 2.1089 39.8918 2.13894C42.2726 2.16681 44.4905 3.12875 46.1366 4.84761C46.9357 5.68186 47.5506 6.65293 47.9642 7.73363C48.3042 8.62206 49.6717 8.09344 49.3317 7.20521C48.8475 5.93999 48.1277 4.80334 47.1923 3.82668C45.2718 1.82153 42.6851 0.699311 39.9087 0.666825C37.1266 0.635221 34.5187 1.69492 32.5541 3.65306C30.5549 5.64555 30.2134 7.78104 29.3687 10.3208C29.0363 11.3203 28.6533 12.2589 28.2477 13.1309C24.8588 10.6135 21.3433 8.81237 18.2799 8.03259C14.7563 7.13572 11.9793 7.57296 10.2491 9.29732C9.10579 10.4368 8.52607 12.0291 8.52607 14.0296C8.52607 15.6275 8.90682 17.4418 9.63773 19.384C7.95681 20.076 6.42573 21.0455 5.0815 22.2725C4.37588 22.9166 5.37277 23.9957 6.06667 23.3622C7.28519 22.25 8.67347 21.3712 10.198 20.7442C10.5209 21.4676 10.8772 22.1785 11.2578 22.8731C9.76989 23.4595 8.44149 24.3289 7.30169 25.4649C5.07759 27.6816 3.85263 30.6669 3.85263 33.871C3.85263 40.8391 9.80212 46.6917 16.7112 46.6917C19.7936 46.6917 22.8356 45.5513 25.137 43.2576C26.2788 42.1196 27.151 40.7942 27.7393 39.3098C28.4586 39.7014 29.1747 40.055 29.8839 40.3691C29.083 42.2975 27.8322 44.0518 26.281 45.4426C23.9766 47.5089 21.0218 48.7533 17.948 49.0108C8.16936 49.8308 -0.290141 40.5967 1.77865 30.8502C2.09816 29.3454 2.65306 27.917 3.42793 26.6046C3.91133 25.7861 2.6512 25.035 2.1679 25.8534C1.31156 27.3036 0.698544 28.8814 0.345833 30.543C-1.92467 41.2389 7.32797 51.3771 18.0699 50.4779C21.5584 50.1856 24.5584 48.7243 27.2567 46.541C30.0498 44.281 31.3143 40.9521 31.3143 40.9521C33.2695 41.6764 35.057 42.0368 36.6208 42.0368C38.5953 42.0368 40.2129 41.4621 41.359 40.3199C43.0941 38.5906 43.5325 35.8139 42.6266 32.2902C41.837 29.2188 40.0127 25.6941 37.4645 22.3003C37.8049 22.1469 38.1496 21.9985 38.4999 21.8572C39.4913 21.4574 40.5827 21.1371 41.9342 20.8495ZM24.1052 42.2123C19.9479 46.3557 13.0282 46.2008 8.67992 41.867C6.51188 39.7062 5.31788 36.8664 5.31788 33.8709C5.31788 31.0624 6.3889 28.4482 8.33355 26.51C9.38329 25.4638 10.6167 24.6763 12.0038 24.1635C13.6754 26.9159 15.8615 29.666 18.4 32.1962C20.9591 34.7466 23.7123 36.9185 26.453 38.5718C25.9394 39.9465 25.1517 41.1693 24.1052 42.2123ZM41.2078 32.6585C42.1784 36.434 41.2645 38.3404 40.3269 39.2749C38.7244 40.872 35.6242 40.9801 31.8209 39.571C27.7758 38.0723 23.376 35.082 19.4319 31.151C13.6969 25.4352 9.99123 18.7147 9.99123 14.0296C9.99123 12.436 10.4251 11.1955 11.281 10.3425C12.607 9.02083 14.9649 8.70725 17.9201 9.45965C20.8649 10.2092 24.2803 11.9819 27.5822 14.4684C25.8109 17.8061 23.8859 19.8605 23.7885 19.9632C22.9775 20.774 22.5663 21.6648 22.5663 22.611C22.5663 23.7671 23.1616 24.9223 24.3861 26.1426C25.5767 27.3293 26.9014 27.9377 28.1207 27.9376C29.0266 27.9376 29.8744 27.6016 30.5653 26.9175C32.0919 25.4059 33.9826 24.0597 36.1174 22.9524C38.6447 26.2666 40.4472 29.7001 41.2078 32.6585Z" fill="#FF0066"/>
<path d="M43.4484 15.3801C43.7932 15.6689 44.1385 15.6704 44.4844 15.3843C45.6322 14.2404 46.2642 12.72 46.2643 11.1034C46.2643 9.48671 45.6322 7.9664 44.4844 6.8224C43.8118 6.15215 42.7801 7.19732 43.4526 7.86757C44.3209 8.73303 44.7992 9.88214 44.7992 11.1034C44.7992 12.3245 44.3209 13.4737 43.4526 14.3391C43.1653 14.6253 43.1635 15.0914 43.4484 15.3801Z" fill="#FF0066"/>
</g>
<defs>
<clipPath id="clip0_1580_15398">
<rect width="50" height="50.2409" fill="white" transform="translate(0 0.479614)"/>
</clipPath>
</defs>
</svg>
