<svg width="50" height="51" viewBox="0 0 50 51" fill="none" xmlns="http://www.w3.org/2000/svg">
<g clip-path="url(#clip0_1580_15395)">
<path d="M49.4782 29.6653C48.5276 25.7445 46.2159 22.2824 42.969 19.9168C39.8783 17.6651 36.1149 16.525 32.3284 16.6827C30.583 12.9188 27.544 9.94481 23.7199 8.27529C23.3445 8.11161 22.9083 8.28441 22.7451 8.66142C22.5821 9.03852 22.7541 9.47705 23.1293 9.64092C26.7668 11.2289 29.6263 14.1085 31.1812 17.7492C31.5215 18.5461 31.7974 19.3763 32.0011 20.2167C32.0552 20.4399 32.1051 20.6694 32.1537 20.9185C32.1537 20.9187 32.1538 20.919 32.1538 20.919C32.8956 24.7234 32.1976 28.6465 30.1884 31.9658C28.289 35.1037 25.3738 37.4443 21.9323 38.6099C21.8702 38.468 21.8108 38.3247 21.7541 38.1803C21.7534 38.1786 21.7528 38.177 21.7522 38.1754C21.6431 37.8975 21.5447 37.6149 21.4558 37.3288C21.4487 37.3059 21.4416 37.2829 21.4346 37.2598C21.3935 37.1247 21.3543 36.9888 21.3178 36.8521C21.3169 36.8487 21.3161 36.8453 21.3152 36.8418C27.788 34.6589 31.7026 27.8867 30.2885 21.1009V21.1006C30.2537 20.9332 30.2223 20.7931 30.19 20.6598C29.9441 19.6458 29.5846 18.663 29.1214 17.7385C29.1205 17.7366 29.1194 17.7348 29.1184 17.7328C29.1153 17.7267 29.1121 17.7207 29.1087 17.7146C27.7487 15.0139 25.4914 12.8152 22.7491 11.522C21.4344 10.902 20.0313 10.5032 18.6011 10.3311L23.8641 5.41558C24.1309 5.16634 24.1779 4.75921 23.9749 4.45531L23.9713 4.45011L23.9711 4.44982L21.5381 0.809025C21.4005 0.603156 21.1699 0.479614 20.9231 0.479614H13.0374C12.7905 0.479614 12.5599 0.603156 12.4222 0.809025L9.9854 4.45551C9.78238 4.75941 9.82925 5.16654 10.0961 5.41578L15.3586 10.3309C14.8228 10.3952 14.2895 10.4911 13.7621 10.6201C6.47818 12.4032 1.99595 19.8083 3.77027 27.1273C4.50181 30.1447 6.25289 32.8449 8.70093 34.7308C10.9501 36.4634 13.7036 37.4534 16.5157 37.5502C16.5292 37.6086 16.5428 37.6665 16.5567 37.7241C16.5897 37.8603 16.6247 37.9955 16.6608 38.1301C16.6692 38.1613 16.6782 38.1925 16.6867 38.2237C16.7162 38.3314 16.7465 38.4385 16.778 38.5451C16.7867 38.5744 16.7956 38.6038 16.8044 38.6331C16.8388 38.7472 16.8743 38.8608 16.9108 38.9736C16.917 38.9931 16.9233 39.0125 16.9296 39.0319C16.9735 39.1656 17.0185 39.2984 17.0654 39.4303C13.8067 39.4469 10.5964 38.4212 7.92779 36.4868C4.94937 34.3278 2.82955 31.1613 1.95904 27.5705C1.09009 23.9864 1.51968 20.201 3.1689 16.9115C4.79986 13.6583 7.51978 11.0755 10.8278 9.63895C11.2034 9.47577 11.3762 9.03763 11.2139 8.66024C11.0515 8.28294 10.6154 8.10896 10.2399 8.27225C6.61382 9.84708 3.63267 12.6773 1.84566 16.2417C0.0382371 19.847 -0.432661 23.9955 0.519487 27.923C1.47349 31.8579 3.79673 35.328 7.06099 37.6943C9.95816 39.7944 13.4385 40.9196 16.9764 40.9195C17.2067 40.9195 17.4373 40.9133 17.6679 40.9038C20.4491 46.8874 26.4828 50.7206 33.0178 50.7205C34.3414 50.7205 35.6858 50.5632 37.0275 50.2347C46.104 48.013 51.6893 38.7856 49.4782 29.6653ZM31.4544 32.7395C33.496 29.3667 34.3011 25.4245 33.7593 21.5444C36.1703 21.6945 38.5198 22.5787 40.4445 24.0773C42.6299 25.7789 44.1317 28.1083 44.7877 30.8136C46.3687 37.335 42.375 43.933 35.8848 45.5216C32.741 46.2913 29.487 45.7846 26.7222 44.095C25.011 43.0491 23.6145 41.6274 22.6168 39.9468C26.2968 38.6461 29.4121 36.1139 31.4544 32.7395ZM21.0177 35.3697C20.6392 32.6605 21.1759 29.9172 22.5714 27.5302C24.0316 25.0326 26.2867 23.17 28.9785 22.2181C29.7721 27.9231 26.4244 33.4538 21.0177 35.3697ZM13.4322 1.96849H20.5281L21.9663 4.1206H11.9941L13.4322 1.96849ZM12.4798 5.60948H21.4804L16.9801 9.81274L12.4798 5.60948ZM16.237 36.0449C13.848 35.8973 11.5192 35.0259 9.60259 33.5493C7.39019 31.8449 5.87134 29.5023 5.21011 26.7748C3.62906 20.2535 7.62281 13.6555 14.1129 12.0667C16.8274 11.4022 19.5961 11.6801 22.1198 12.8701C24.3063 13.9011 26.1451 15.5783 27.376 17.6422C23.5743 18.9855 20.3943 21.6288 18.3565 25.1634C16.4431 28.4822 15.7113 32.2897 16.237 36.0449ZM36.6768 48.7882C35.4519 49.088 34.2261 49.2315 33.0179 49.2314C26.866 49.2309 21.2002 45.5077 18.7787 39.7481C18.7522 39.685 18.7257 39.6221 18.7001 39.5587C18.6897 39.5331 18.6797 39.5072 18.6695 39.4816C18.6379 39.4025 18.6067 39.3233 18.5765 39.2436C18.572 39.2317 18.5677 39.2197 18.5632 39.2078C18.5287 39.116 18.4947 39.024 18.4619 38.9315C18.4608 38.9286 18.4598 38.9255 18.4587 38.9226C18.4233 38.8228 18.3888 38.7226 18.3554 38.622C18.3552 38.6215 18.355 38.621 18.3548 38.6204C18.321 38.5184 18.2881 38.4162 18.2564 38.3136C18.2542 38.3064 18.2521 38.299 18.2499 38.2917C18.2205 38.1962 18.1918 38.1005 18.1642 38.0045C18.1552 37.9731 18.1468 37.9414 18.1379 37.9098C18.1175 37.8372 18.0971 37.7646 18.0778 37.6917C18.0497 37.5855 18.0225 37.4789 17.9965 37.3716C17.9702 37.263 17.9455 37.1542 17.9215 37.0452C17.9123 37.0029 17.9032 36.9595 17.8941 36.9162C17.8836 36.8667 17.8736 36.8171 17.8636 36.7675C17.8571 36.735 17.8505 36.7029 17.844 36.6696C17.8431 36.6651 17.8418 36.6609 17.8409 36.6565C17.1251 32.9684 17.7539 29.1791 19.6387 25.9096C21.5333 22.6234 24.5093 20.1817 28.0648 18.9786C28.3143 19.5488 28.5209 20.1404 28.682 20.7458C25.5737 21.7921 22.9682 23.9122 21.2941 26.7758C19.5709 29.7232 19.0148 33.1546 19.7093 36.4866C19.7093 36.4868 19.7094 36.4871 19.7094 36.4873C19.7097 36.489 19.7101 36.4903 19.7104 36.492C19.7227 36.551 19.7352 36.6099 19.7483 36.6687C19.7684 36.7605 19.788 36.846 19.808 36.9283C19.8373 37.0491 19.8684 37.1691 19.9007 37.2886C19.9086 37.3178 19.9172 37.347 19.9253 37.3762C19.9511 37.4691 19.9776 37.5616 20.0051 37.6535C20.0134 37.6813 20.0221 37.7089 20.0307 37.7365C20.0605 37.8336 20.0913 37.9302 20.123 38.0264C20.1294 38.0457 20.1359 38.065 20.1423 38.0842C20.1795 38.1952 20.2182 38.3055 20.2582 38.4151C20.2596 38.419 20.261 38.4229 20.2625 38.4269C21.3175 41.3153 23.2976 43.7443 25.9526 45.3669C28.1094 46.685 30.5313 47.3617 32.9929 47.3616C34.0725 47.3616 35.1601 47.2314 36.2359 46.968C43.5198 45.185 48.002 37.7799 46.2276 30.4609C45.4915 27.4248 43.8056 24.8103 41.3523 22.9002C39.0952 21.1428 36.3169 20.1361 33.4822 20.0384C33.4687 19.9798 33.455 19.9217 33.441 19.864C33.3015 19.2886 33.1311 18.7175 32.9319 18.1571C36.2027 18.1375 39.4258 19.1744 42.0993 21.1221C45.0619 23.2804 47.171 26.4396 48.0386 30.0176C50.0562 38.3403 44.9594 46.7607 36.6768 48.7882Z" fill="#FF0066"/>
</g>
<defs>
<clipPath id="clip0_1580_15395">
<rect width="50" height="50.2409" fill="white" transform="translate(0 0.479614)"/>
</clipPath>
</defs>
</svg>
