<svg width="156" height="70" viewBox="0 0 156 70" fill="none" xmlns="http://www.w3.org/2000/svg">
<path d="M155.753 30.7795C155.753 34.8593 154.953 38.823 153.373 42.5559C151.85 46.1575 149.669 49.3929 146.894 52.1694C144.117 54.9446 140.883 57.1254 137.28 58.6485C133.548 60.2281 129.585 61.0283 125.504 61.0283C121.423 61.0283 117.461 60.2281 113.728 58.6485C110.126 57.1254 106.891 54.9446 104.114 52.1694C103.984 52.0395 103.856 51.9082 103.729 51.7756C105.723 49.3376 107.351 46.6399 108.585 43.721C109.275 42.0929 109.827 40.4262 110.243 38.7277C113.118 44.2254 118.88 47.9874 125.503 47.9874C134.99 47.9874 142.71 40.2686 142.71 30.7795C142.71 21.2904 134.992 13.5717 125.503 13.5717C118.87 13.5717 113.102 17.3433 110.231 22.8549C108.994 25.2278 108.295 27.9242 108.295 30.7795V30.8154C108.295 34.8952 107.495 38.859 105.915 42.5919C104.852 45.1044 103.47 47.4387 101.788 49.5629C101.181 50.3299 100.537 51.0679 99.8532 51.7783C99.715 51.9221 99.5768 52.0644 99.4359 52.2054C96.6593 54.9805 93.4253 57.1614 89.8223 58.6844C86.0894 60.2641 82.1271 61.0643 78.0459 61.0643C73.9648 61.0643 70.0024 60.2641 66.2695 58.6844C62.6665 57.1614 59.4325 54.9805 56.656 52.2054C56.515 52.0644 56.3768 51.9234 56.2386 51.7797C58.2467 49.3321 59.8845 46.6205 61.1269 43.6851C61.8083 42.0736 62.3583 40.422 62.7743 38.7401C65.6448 44.2517 71.4121 48.0233 78.0459 48.0233C84.6798 48.0233 90.447 44.2517 93.3175 38.7401C94.5545 36.3671 95.2538 33.6707 95.2538 30.8154V30.7795C95.2538 26.6997 96.054 22.736 97.6337 19.0031C98.6965 16.4905 100.079 14.1563 101.76 12.0321C102.367 11.265 103.013 10.5256 103.697 9.81526C103.835 9.67153 103.973 9.52918 104.114 9.38959C106.891 6.61445 110.125 4.43358 113.728 2.91056C117.461 1.33088 121.423 0.53068 125.504 0.53068C129.585 0.53068 133.548 1.33088 137.28 2.91056C140.882 4.43358 144.117 6.61445 146.894 9.38959C149.669 12.1661 151.85 15.4001 153.373 19.0031C154.953 22.736 155.753 26.6983 155.753 30.7795ZM52.0096 56.8546C51.1693 56.0143 50.2862 55.2293 49.3643 54.5009C50.2751 53.7781 51.1486 53.0014 51.9806 52.1694C52.1105 52.0395 52.239 51.9082 52.3661 51.7756C53.0516 51.0666 53.6984 50.3285 54.3052 49.5629C55.9995 47.429 57.3913 45.0837 58.4596 42.5559C60.0351 38.8327 60.8339 34.8828 60.8395 30.8154V30.7795C60.845 27.9284 61.5485 25.2375 62.7882 22.8687C65.6628 17.3695 71.4246 13.609 78.0473 13.609C84.6701 13.609 90.4318 17.3709 93.3065 22.8687C93.7225 21.1701 94.2767 19.502 94.9663 17.874C96.2005 14.9551 97.8285 12.2573 99.8228 9.81941C99.6957 9.68673 99.5672 9.55544 99.4372 9.42553C96.6607 6.65038 93.4267 4.46951 89.8237 2.9465C86.0908 1.36682 82.1285 0.566615 78.0473 0.566615C73.9661 0.566615 70.0038 1.36682 66.2709 2.9465C62.6679 4.46951 59.4339 6.65038 56.6574 9.42553C56.5275 9.55544 56.399 9.68673 56.2718 9.81941C55.5863 10.5284 54.9395 11.2664 54.3328 12.0321C52.6384 14.1659 51.2467 16.5113 50.1784 19.039C48.6028 22.7623 47.804 26.7122 47.7985 30.7795V30.8154C47.793 33.6666 47.0895 36.3575 45.8498 38.7263C42.9751 44.2241 37.2148 47.986 30.5906 47.986C21.1029 47.986 13.3828 40.2673 13.3828 30.7781C13.3828 21.289 21.1015 13.5703 30.5906 13.5703C37.2231 13.5703 42.9917 17.3419 45.8622 22.8535C46.2769 21.1715 46.8269 19.5214 47.5096 17.9085C48.7521 14.9731 50.3898 12.2615 52.3979 9.81388C52.2597 9.67015 52.1215 9.5278 51.9806 9.38821C49.204 6.61306 45.97 4.43219 42.367 2.90918C38.6341 1.3295 34.6718 0.529297 30.5906 0.529297C26.5095 0.529297 22.5471 1.3295 18.8142 2.90918C15.2112 4.43219 11.9772 6.61306 9.20071 9.38821C6.42556 12.1647 4.24469 15.3987 2.72168 19.0017C1.15168 22.7125 0.351471 26.6513 0.341797 30.7063V69.4685H13.3828V55.6605C15.0799 56.8366 16.8946 57.8358 18.8142 58.6485C22.5471 60.2281 26.5095 61.0283 30.5906 61.0283V61.0366C30.6003 61.0366 30.61 61.0366 30.6183 61.0366C36.9038 61.0366 42.4113 64.424 45.4145 69.4699H59.5735C59.2653 68.4541 58.9032 67.4535 58.4872 66.4681C56.9628 62.8651 54.7833 59.6311 52.0068 56.8546H52.0096Z" fill="white"/>
</svg>
