<svg width="513" height="512" viewBox="0 0 513 512" fill="none" xmlns="http://www.w3.org/2000/svg">
<path d="M258.084 164.242C258.084 168.101 254.956 171.23 251.096 171.23C247.236 171.23 244.108 168.101 244.108 164.242V158.556C244.108 154.697 247.236 151.568 251.096 151.568C254.956 151.568 258.084 154.696 258.084 158.556V164.242ZM303.15 171.23C307.009 171.23 310.138 168.101 310.138 164.242V158.556C310.138 154.697 307.01 151.568 303.15 151.568C299.29 151.568 296.162 154.696 296.162 158.556V164.242C296.162 168.101 299.291 171.23 303.15 171.23ZM294.798 195.493C297.856 193.137 298.423 188.751 296.068 185.693C293.713 182.636 289.323 182.067 286.268 184.423C280.481 188.883 274.36 188.883 268.573 184.423C265.515 182.066 261.129 182.636 258.773 185.693C256.417 188.75 256.985 193.137 260.043 195.493C265.402 199.622 271.411 201.688 277.42 201.688C283.43 201.687 289.438 199.622 294.798 195.493ZM281.455 290.207C281.275 289.778 281.065 289.379 280.806 288.999C280.556 288.609 280.267 288.26 279.938 287.931C278.321 286.314 275.906 285.566 273.641 286.025C273.192 286.115 272.752 286.245 272.333 286.425C271.904 286.595 271.505 286.814 271.125 287.063C270.736 287.323 270.386 287.612 270.057 287.931C269.738 288.26 269.449 288.609 269.189 288.999C268.939 289.378 268.719 289.778 268.55 290.207C268.37 290.626 268.241 291.066 268.151 291.514C268.061 291.963 268.011 292.422 268.011 292.872C268.011 294.718 268.76 296.515 270.057 297.812C270.386 298.141 270.736 298.431 271.125 298.69C271.504 298.94 271.904 299.149 272.333 299.328C272.752 299.498 273.192 299.638 273.641 299.728C274.089 299.818 274.548 299.867 275.007 299.867C276.844 299.867 278.64 299.118 279.938 297.811C281.245 296.514 281.984 294.717 281.984 292.871C281.984 292.422 281.944 291.963 281.854 291.513C281.764 291.066 281.624 290.626 281.455 290.207ZM281.455 312.213C281.275 311.794 281.065 311.385 280.815 311.005C280.556 310.626 280.267 310.266 279.937 309.948C279.617 309.619 279.259 309.329 278.879 309.08C278.499 308.82 278.1 308.61 277.671 308.431C277.251 308.261 276.813 308.122 276.363 308.032C275.465 307.852 274.536 307.852 273.639 308.032C273.19 308.122 272.75 308.261 272.331 308.431C271.902 308.61 271.503 308.82 271.123 309.08C270.734 309.33 270.384 309.619 270.055 309.948C269.736 310.267 269.447 310.626 269.187 311.005C268.937 311.384 268.717 311.794 268.548 312.213C268.368 312.632 268.239 313.072 268.149 313.521C268.059 313.969 268.009 314.428 268.009 314.887C268.009 315.336 268.059 315.795 268.149 316.254C268.239 316.694 268.368 317.132 268.548 317.562C268.717 317.981 268.938 318.38 269.187 318.76C269.446 319.149 269.736 319.498 270.055 319.827C270.384 320.147 270.734 320.436 271.123 320.695C271.502 320.945 271.902 321.164 272.331 321.333C272.75 321.513 273.19 321.643 273.639 321.733C274.087 321.823 274.546 321.872 274.995 321.872C275.454 321.872 275.913 321.822 276.363 321.733C276.812 321.643 277.251 321.514 277.671 321.333C278.1 321.163 278.499 320.944 278.879 320.695C279.258 320.436 279.617 320.146 279.937 319.827C280.267 319.498 280.556 319.149 280.815 318.76C281.065 318.38 281.274 317.981 281.455 317.562C281.624 317.132 281.764 316.694 281.853 316.254C281.943 315.795 281.983 315.336 281.983 314.887C281.983 314.428 281.943 313.969 281.853 313.521C281.764 313.072 281.624 312.632 281.455 312.213ZM462.62 152.699H386.35C374.51 152.699 364.878 162.319 364.878 174.143C364.878 185.983 374.51 195.616 386.35 195.616H417.582C421.716 195.616 425.079 198.978 425.079 203.112C425.079 206.971 428.207 210.1 432.067 210.1C435.926 210.1 439.055 206.972 439.055 203.112C439.055 191.272 429.422 181.64 417.582 181.64H386.35C382.217 181.64 378.854 178.278 378.854 174.143C378.854 170.024 382.216 166.674 386.35 166.674H462.62C474.46 166.674 484.092 157.041 484.092 145.201C484.092 133.361 474.46 123.729 462.62 123.729H436.819C432.685 123.729 429.322 120.367 429.322 116.232C429.322 112.373 426.194 109.244 422.334 109.244C418.475 109.244 415.346 112.372 415.346 116.232C415.346 128.072 424.979 137.705 436.819 137.705H462.62C466.753 137.705 470.116 141.067 470.116 145.201C470.116 149.267 466.684 152.699 462.62 152.699ZM484.205 336.075V361.253V465.331C484.205 467.975 482.712 470.393 480.348 471.578C479.358 472.074 478.285 472.319 477.218 472.319C475.737 472.319 474.265 471.848 473.034 470.928C466.701 466.195 459.996 462.155 453.002 458.82V504.512C453.002 508.371 449.874 511.5 446.014 511.5H420.836C416.976 511.5 413.848 508.371 413.848 504.512V447.984C409.988 447.609 406.093 447.396 402.164 447.396C377.448 447.396 353.755 454.942 333.647 469.219C331.223 470.939 327.975 470.939 325.551 469.215C305.484 454.941 281.782 447.396 257.009 447.396C232.294 447.396 208.6 454.943 188.49 469.219C186.068 470.939 182.819 470.939 180.395 469.215C160.329 454.941 136.638 447.396 111.883 447.396C107.954 447.396 104.06 447.609 100.199 447.984V504.512C100.199 508.371 97.0699 511.5 93.2109 511.5H68.0329C64.1739 511.5 61.0449 508.371 61.0449 504.512V458.82C54.0509 462.155 47.3459 466.195 41.0129 470.928C38.8939 472.511 36.0639 472.762 33.6999 471.578C31.3359 470.393 29.8429 467.975 29.8429 465.331V361.253V336.075C29.8429 332.215 32.9709 329.087 36.8309 329.087H61.0459V315.396H46.3339C42.4749 315.396 39.3459 312.268 39.3459 308.408V284.003C33.1439 281.297 28.7949 275.112 28.7949 267.925C28.7949 260.612 33.2979 254.336 39.6739 251.707C42.2109 211.571 71.4829 178.58 109.839 170.39C108.672 167.821 108.006 164.979 108.006 161.979C108.006 150.716 117.169 141.554 128.432 141.554C139.695 141.554 148.858 150.716 148.858 161.979C148.858 164.979 148.191 167.821 147.025 170.39C181.875 177.831 209.227 205.746 215.839 240.892L237.97 234.471V221.241C220.691 212.487 208.775 194.237 208.775 173.182V139.569C205.766 138.79 203.541 136.064 203.541 132.812V103.32C189.219 97.445 180.712 85.343 180.712 69.273C180.712 44.642 200.751 24.603 225.381 24.603C229.854 24.603 234.2 25.244 238.377 26.516C245.558 10.881 261.294 0.5 278.962 0.5C296.17 0.5 311.838 10.612 319.205 25.79C322.559 25 325.988 24.603 329.46 24.603C354.09 24.603 374.129 44.642 374.129 69.273C374.129 85.332 365.633 97.43 351.328 103.309V132.812C351.328 136.075 349.09 138.807 346.066 139.576V173.181C346.066 194.231 334.162 212.476 316.899 221.233V234.475L322.504 236.107C328.238 228.128 337.598 222.915 348.158 222.915C354.948 222.915 361.475 225.12 366.86 229.102C372.108 225.217 378.597 222.915 385.614 222.915C392.403 222.915 398.931 225.12 404.315 229.102C409.563 225.217 416.051 222.915 423.069 222.915C440.462 222.915 454.612 237.065 454.612 254.458V271.487H467.71C471.569 271.487 474.698 274.615 474.698 278.475V308.406C474.698 312.265 471.57 315.394 467.71 315.394H453V329.085H477.215C481.077 329.087 484.205 332.215 484.205 336.075ZM439.026 329.087V315.396H426.805V329.087H439.026ZM344.424 315.395H332.204V329.086H344.424V315.395ZM412.829 315.395H358.4V329.086H412.829V315.395ZM405.475 271.488H440.638V254.459C440.638 244.772 432.758 236.892 423.071 236.892C413.369 236.892 405.475 244.773 405.475 254.459V271.488ZM368.019 271.488H391.499V254.459C391.499 249.154 392.822 244.153 395.148 239.761C392.323 237.918 389.03 236.891 385.615 236.891C375.912 236.891 368.018 244.772 368.018 254.458V271.488H368.019ZM330.563 271.488H354.042V254.459C354.042 249.154 355.366 244.153 357.691 239.761C354.866 237.918 351.573 236.892 348.158 236.892C338.456 236.892 330.563 244.773 330.563 254.459V271.488ZM310.506 285.464V301.419H325.216H351.412H419.817H446.013H460.723V285.464H310.506ZM312.079 247.628L281.069 266.51C281.009 266.546 280.944 266.572 280.883 266.606L258.114 280.478V329.087H318.229V315.396H303.518C299.659 315.396 296.53 312.268 296.53 308.408V278.477C296.53 274.617 299.658 271.489 303.518 271.489H316.588V254.46C316.588 252.625 316.755 250.829 317.057 249.078L312.079 247.628ZM292.81 242.975L292.82 242.992L302.924 236.84V225.932C299.964 226.468 296.923 226.764 293.815 226.764H261.055C257.947 226.764 254.907 226.469 251.947 225.933V236.84L277.42 252.352L292.81 242.975ZM225.381 93.291H329.46C336.66 93.291 360.153 91.559 360.153 69.274C360.153 52.349 346.385 38.58 329.46 38.58C325.437 38.58 321.49 39.358 317.727 40.892C315.901 41.636 313.846 41.574 312.068 40.722C310.291 39.87 308.955 38.307 308.392 36.418C304.54 23.499 292.439 14.477 278.963 14.477C264.992 14.477 252.777 23.925 249.26 37.452C248.727 39.503 247.292 41.2 245.359 42.069C243.426 42.938 241.204 42.881 239.317 41.916C234.985 39.702 230.297 38.58 225.382 38.58C208.457 38.58 194.689 52.349 194.689 69.274C194.688 91.559 218.181 93.291 225.381 93.291ZM217.517 125.824H337.352V106.812C334.822 107.108 332.192 107.266 329.459 107.266H225.381C222.659 107.266 220.038 107.109 217.517 106.816V125.824ZM261.055 212.787H293.815C314.92 212.787 332.091 195.021 332.091 173.182V139.8H222.75V173.182C222.75 195.021 239.934 212.787 261.055 212.787ZM210.529 315.395H195.819V329.086H244.138V276.552C244.138 274.114 245.409 271.853 247.491 270.584L263.988 260.533L242.787 247.624L221.058 253.928C225.307 257.132 228.07 262.205 228.07 267.923C228.07 275.11 223.719 281.295 217.518 284.001V308.406C217.517 312.267 214.389 315.395 210.529 315.395ZM155.646 315.395H101.217V329.086H155.646V315.395ZM181.842 315.395H169.622V329.086H181.842V315.395ZM121.981 161.979C121.981 165.535 124.875 168.429 128.431 168.429C131.987 168.429 134.881 165.535 134.881 161.979C134.881 158.423 131.987 155.53 128.431 155.53C124.875 155.53 121.981 158.422 121.981 161.979ZM53.7869 250.385H203.077C199.541 212.312 167.413 182.405 128.431 182.405C89.4509 182.405 57.3229 212.312 53.7869 250.385ZM46.3339 271.488H210.529C212.495 271.488 214.093 269.89 214.093 267.925C214.093 265.992 212.461 264.361 210.529 264.361H210.388H46.4769H46.3339C44.4019 264.361 42.7709 265.992 42.7709 267.925C42.7709 269.89 44.3689 271.488 46.3339 271.488ZM68.0329 301.419H94.2299H162.635H188.83H203.541V285.464H53.3219V301.419H68.0329ZM75.0209 329.087H87.2419V315.396H75.0209V329.087ZM86.2229 450.19C82.4349 451.023 78.6969 452.029 75.0209 453.231V497.524H86.2229V450.19ZM439.026 453.231C435.351 452.029 431.611 451.023 427.824 450.189V497.523H439.026V453.231ZM470.229 343.063H43.8169V354.265H353.307C357.166 354.265 360.295 357.394 360.295 361.253C360.295 365.113 357.166 368.241 353.307 368.241H43.8169V452.224C50.6869 448.091 57.8729 444.633 65.2959 441.841C65.4239 441.787 65.5569 441.743 65.6879 441.696C80.3169 436.247 95.8799 433.42 111.882 433.42C137.912 433.42 162.894 440.886 184.448 455.058C206.038 440.885 231.018 433.42 257.008 433.42C283.054 433.42 308.047 440.886 329.603 455.058C351.192 440.885 376.173 433.42 402.163 433.42C418.172 433.42 433.741 436.248 448.374 441.702C448.499 441.747 448.626 441.789 448.748 441.841C456.172 444.633 463.358 448.091 470.228 452.225V368.242H380.606C376.747 368.242 373.618 365.114 373.618 361.254C373.618 357.395 376.746 354.266 380.606 354.266H470.228V343.063H470.229Z" fill="black"/>
</svg>
