<svg width="140" height="141" viewBox="0 0 140 141" fill="none" xmlns="http://www.w3.org/2000/svg">
<g clip-path="url(#clip0_2626_23205)">
<path d="M70.4932 45.3659C70.4932 46.4193 69.6393 47.2735 68.5856 47.2735C67.5319 47.2735 66.678 46.4193 66.678 45.3659V43.8138C66.678 42.7603 67.5319 41.9062 68.5856 41.9062C69.6393 41.9062 70.4932 42.7601 70.4932 43.8138V45.3659ZM82.7952 47.2735C83.8486 47.2735 84.7028 46.4193 84.7028 45.3659V43.8138C84.7028 42.7603 83.8489 41.9062 82.7952 41.9062C81.7415 41.9062 80.8876 42.7601 80.8876 43.8138V45.3659C80.8876 46.4193 81.7418 47.2735 82.7952 47.2735ZM80.5153 53.8968C81.3501 53.2536 81.5048 52.0563 80.862 51.2216C80.2191 50.3871 79.0207 50.2318 78.1868 50.8749C76.6071 52.0924 74.9362 52.0924 73.3565 50.8749C72.5217 50.2315 71.3244 50.3871 70.6813 51.2216C70.0381 52.0561 70.1932 53.2536 71.0279 53.8968C72.4908 55.0239 74.1312 55.5879 75.7715 55.5879C77.4121 55.5876 79.0521 55.0239 80.5153 53.8968ZM76.8729 79.7516C76.8238 79.6345 76.7665 79.5256 76.6958 79.4218C76.6275 79.3154 76.5487 79.2201 76.4588 79.1303C76.0174 78.6889 75.3582 78.4847 74.7399 78.61C74.6173 78.6346 74.4972 78.67 74.3828 78.7192C74.2657 78.7656 74.1568 78.8254 74.0531 78.8933C73.9469 78.9643 73.8514 79.0432 73.7616 79.1303C73.6745 79.2201 73.5956 79.3154 73.5246 79.4218C73.4564 79.5253 73.3963 79.6345 73.3502 79.7516C73.301 79.866 73.2658 79.9861 73.2413 80.1084C73.2167 80.2309 73.203 80.3562 73.203 80.4791C73.203 80.983 73.4075 81.4735 73.7616 81.8276C73.8514 81.9174 73.9469 81.9966 74.0531 82.0673C74.1565 82.1355 74.2657 82.1926 74.3828 82.2414C74.4972 82.2878 74.6173 82.326 74.7399 82.3506C74.8622 82.3752 74.9875 82.3886 75.1128 82.3886C75.6142 82.3886 76.1045 82.1841 76.4588 81.8273C76.8156 81.4733 77.0174 80.9827 77.0174 80.4788C77.0174 80.3562 77.0064 80.2309 76.9819 80.1081C76.9573 79.9861 76.9191 79.866 76.8729 79.7516ZM76.8729 85.7587C76.8238 85.6444 76.7665 85.5327 76.6982 85.429C76.6275 85.3255 76.5487 85.2273 76.4586 85.1404C76.3712 85.0506 76.2735 84.9715 76.1698 84.9035C76.066 84.8325 75.9571 84.7752 75.84 84.7263C75.7254 84.6799 75.6058 84.642 75.483 84.6174C75.2378 84.5683 74.9842 84.5683 74.7394 84.6174C74.6168 84.642 74.4967 84.6799 74.3823 84.7263C74.2652 84.7752 74.1563 84.8325 74.0525 84.9035C73.9464 84.9717 73.8508 85.0506 73.761 85.1404C73.6739 85.2275 73.595 85.3255 73.5241 85.429C73.4558 85.5324 73.3958 85.6444 73.3496 85.7587C73.3005 85.8731 73.2653 85.9932 73.2407 86.1158C73.2161 86.2381 73.2025 86.3634 73.2025 86.4887C73.2025 86.6113 73.2161 86.7366 73.2407 86.8618C73.2653 86.982 73.3005 87.1015 73.3496 87.2189C73.3958 87.3333 73.4561 87.4422 73.5241 87.5459C73.5948 87.6521 73.6739 87.7474 73.761 87.8372C73.8508 87.9245 73.9464 88.0034 74.0525 88.0741C74.156 88.1424 74.2652 88.2022 74.3823 88.2483C74.4967 88.2974 74.6168 88.3329 74.7394 88.3575C74.8617 88.3821 74.9869 88.3954 75.1095 88.3954C75.2348 88.3954 75.3601 88.3818 75.483 88.3575C75.6055 88.3329 75.7254 88.2977 75.84 88.2483C75.9571 88.2019 76.066 88.1421 76.1698 88.0741C76.2732 88.0034 76.3712 87.9243 76.4586 87.8372C76.5487 87.7474 76.6275 87.6521 76.6982 87.5459C76.7665 87.4422 76.8235 87.3333 76.8729 87.2189C76.9191 87.1015 76.9573 86.982 76.9816 86.8618C77.0062 86.7366 77.0171 86.6113 77.0171 86.4887C77.0171 86.3634 77.0062 86.2381 76.9816 86.1158C76.9573 85.9932 76.9191 85.8731 76.8729 85.7587ZM126.327 42.2149H105.507C102.275 42.2149 99.6456 44.841 99.6456 48.0687C99.6456 51.3007 102.275 53.9303 105.507 53.9303H114.033C115.161 53.9303 116.079 54.8481 116.079 55.9766C116.079 57.03 116.933 57.8841 117.987 57.8841C119.04 57.8841 119.894 57.0303 119.894 55.9766C119.894 52.7445 117.265 50.1152 114.033 50.1152H105.507C104.379 50.1152 103.461 49.1974 103.461 48.0687C103.461 46.9443 104.378 46.0298 105.507 46.0298H126.327C129.559 46.0298 132.188 43.4002 132.188 40.1682C132.188 36.9361 129.559 34.3068 126.327 34.3068H119.284C118.155 34.3068 117.237 33.389 117.237 32.2603C117.237 31.2068 116.384 30.3527 115.33 30.3527C114.276 30.3527 113.422 31.2066 113.422 32.2603C113.422 35.4923 116.052 38.1219 119.284 38.1219H126.327C127.455 38.1219 128.373 39.0397 128.373 40.1682C128.373 41.2781 127.436 42.2149 126.327 42.2149ZM132.219 92.2725V99.1456V127.557C132.219 128.278 131.812 128.938 131.166 129.262C130.896 129.397 130.603 129.464 130.312 129.464C129.908 129.464 129.506 129.336 129.17 129.084C127.441 127.792 125.611 126.69 123.702 125.779V138.252C123.702 139.306 122.848 140.16 121.794 140.16H114.921C113.867 140.16 113.013 139.306 113.013 138.252V122.821C111.96 122.719 110.896 122.661 109.824 122.661C103.077 122.661 96.6093 124.721 91.1202 128.618C90.4585 129.087 89.5719 129.087 88.9102 128.617C83.4323 124.72 76.9622 122.661 70.1997 122.661C63.4531 122.661 56.9851 124.721 51.4956 128.618C50.8344 129.087 49.9475 129.087 49.2858 128.617C43.8082 124.72 37.3411 122.661 30.5835 122.661C29.511 122.661 28.448 122.719 27.3941 122.821V138.252C27.3941 139.306 26.5399 140.16 25.4865 140.16H18.6135C17.56 140.16 16.7059 139.306 16.7059 138.252V125.779C14.7967 126.69 12.9664 127.792 11.2376 129.084C10.6591 129.517 9.88662 129.585 9.2413 129.262C8.59598 128.938 8.18842 128.278 8.18842 127.557V99.1456V92.2725C8.18842 91.2189 9.0423 90.365 10.096 90.365H16.7062V86.6276H12.6901C11.6367 86.6276 10.7825 85.7738 10.7825 84.7201V78.058C9.08952 77.3194 7.90234 75.631 7.90234 73.6691C7.90234 71.6728 9.13156 69.9596 10.8721 69.2419C11.5646 58.2857 19.5552 49.2799 30.0256 47.0442C29.707 46.3429 29.5252 45.5671 29.5252 44.7482C29.5252 41.6736 32.0265 39.1726 35.101 39.1726C38.1756 39.1726 40.6769 41.6736 40.6769 44.7482C40.6769 45.5671 40.4948 46.3429 40.1765 47.0442C49.6898 49.0754 57.1563 56.6956 58.9612 66.2897L65.0025 64.5369V60.9254C60.2857 58.5357 57.0329 53.5539 57.0329 47.8063V38.6307C56.2115 38.4181 55.6041 37.674 55.6041 36.7862V28.7356C51.6946 27.1318 49.3723 23.8282 49.3723 19.4415C49.3723 12.7178 54.8425 7.24756 61.566 7.24756C62.787 7.24756 63.9734 7.42254 65.1136 7.76976C67.0739 3.50175 71.3694 0.667969 76.1924 0.667969C80.8898 0.667969 85.1668 3.42832 87.1779 7.57158C88.0934 7.35593 89.0295 7.24756 89.9773 7.24756C96.7007 7.24756 102.171 12.7178 102.171 19.4415C102.171 23.8252 99.8517 27.1277 95.9467 28.7326V36.7862C95.9467 37.677 95.3358 38.4227 94.5103 38.6327V47.8061C94.5103 53.5523 91.2608 58.5327 86.5484 60.9232V64.538L88.0784 64.9835C89.6437 62.8054 92.1987 61.3824 95.0814 61.3824C96.9349 61.3824 98.7166 61.9843 100.187 63.0713C101.619 62.0108 103.391 61.3824 105.306 61.3824C107.159 61.3824 108.941 61.9843 110.411 63.0713C111.844 62.0108 113.615 61.3824 115.53 61.3824C120.278 61.3824 124.141 65.245 124.141 69.9929V74.6414H127.716C128.77 74.6414 129.624 75.4953 129.624 76.549V84.7195C129.624 85.7729 128.77 86.6271 127.716 86.6271H123.701V90.3644H130.311C131.365 90.365 132.219 91.2189 132.219 92.2725ZM119.886 90.365V86.6276H116.55V90.365H119.886ZM94.0621 86.6274H90.7263V90.3647H94.0621V86.6274ZM112.735 86.6274H97.8772V90.3647H112.735V86.6274ZM110.728 74.6417H120.326V69.9932C120.326 67.3488 118.175 65.1978 115.531 65.1978C112.883 65.1978 110.728 67.3491 110.728 69.9932V74.6417ZM100.503 74.6417H106.913V69.9932C106.913 68.545 107.274 67.1799 107.909 65.9809C107.137 65.4778 106.239 65.1975 105.306 65.1975C102.658 65.1975 100.503 67.3488 100.503 69.9929V74.6417H100.503ZM90.2783 74.6417H96.6876V69.9932C96.6876 68.545 97.049 67.1799 97.6837 65.9809C96.9125 65.4778 96.0136 65.1978 95.0814 65.1978C92.433 65.1978 90.2783 67.3491 90.2783 69.9932V74.6417ZM84.8032 78.4569V82.8122H88.8187H95.9697H114.643H121.794H125.809V78.4569H84.8032ZM85.2326 68.1285L76.7676 73.2828C76.7512 73.2927 76.7335 73.2998 76.7168 73.309L70.5014 77.0958V90.365H86.9114V86.6276H82.8957C81.8422 86.6276 80.9881 85.7738 80.9881 84.7201V76.5496C80.9881 75.4959 81.842 74.642 82.8957 74.642H86.4635V69.9935C86.4635 69.4925 86.5091 69.0023 86.5915 68.5243L85.2326 68.1285ZM79.9726 66.8583L79.9753 66.8629L82.7335 65.1836V62.2059C81.9255 62.3523 81.0954 62.4331 80.247 62.4331H71.3042C70.4558 62.4331 69.6259 62.3525 68.8179 62.2062V65.1836L75.7715 69.418L79.9726 66.8583ZM61.566 25.9979H89.9773C91.9427 25.9979 98.3558 25.5251 98.3558 19.4418C98.3558 14.8216 94.5974 11.063 89.9773 11.063C88.8791 11.063 87.8016 11.2753 86.7744 11.6941C86.2759 11.8972 85.715 11.8803 85.2296 11.6477C84.7445 11.4151 84.3798 10.9884 84.2262 10.4728C83.1746 6.94619 79.8713 4.48338 76.1927 4.48338C72.3789 4.48338 69.0445 7.06248 68.0844 10.755C67.9389 11.3149 67.5472 11.7782 67.0195 12.0154C66.4919 12.2526 65.8853 12.237 65.3702 11.9736C64.1877 11.3693 62.9079 11.063 61.5663 11.063C56.9461 11.063 53.1877 14.8216 53.1877 19.4418C53.1875 25.5251 59.6005 25.9979 61.566 25.9979ZM59.4193 34.8787H92.1316V29.6888C91.441 29.7696 90.723 29.8127 89.977 29.8127H61.566C60.8229 29.8127 60.1075 29.7699 59.4193 29.6899V34.8787ZM71.3042 58.6176H80.247C86.0082 58.6176 90.6955 53.7679 90.6955 47.8063V38.6938H60.8478V47.8063C60.8478 53.7679 65.5386 58.6176 71.3042 58.6176ZM57.5117 86.6274H53.4962V90.3647H66.6862V76.0241C66.6862 75.3586 67.0332 74.7414 67.6015 74.3949L72.1048 71.6512L66.3174 68.1274L60.3859 69.8482C61.5458 70.7228 62.3 72.1077 62.3 73.6686C62.3 75.6304 61.1123 77.3188 59.4196 78.0575V84.7195C59.4193 85.7735 58.5654 86.6274 57.5117 86.6274ZM42.5299 86.6274H27.672V90.3647H42.5299V86.6274ZM49.6808 86.6274H46.345V90.3647H49.6808V86.6274ZM33.3401 44.7482C33.3401 45.7189 34.1301 46.5089 35.1008 46.5089C36.0715 46.5089 36.8615 45.7189 36.8615 44.7482C36.8615 43.7775 36.0715 42.9877 35.1008 42.9877C34.1301 42.9877 33.3401 43.7772 33.3401 44.7482ZM14.7246 68.8811H55.4775C54.5122 58.488 45.742 50.324 35.1008 50.324C24.4601 50.324 15.6899 58.488 14.7246 68.8811ZM12.6901 74.6417H57.5117C58.0484 74.6417 58.4846 74.2055 58.4846 73.6691C58.4846 73.1414 58.0391 72.6962 57.5117 72.6962H57.4732H12.7291H12.6901C12.1627 72.6962 11.7175 73.1414 11.7175 73.6691C11.7175 74.2055 12.1537 74.6417 12.6901 74.6417ZM18.6135 82.8122H25.7647H44.4377H51.5884H55.6041V78.4569H14.5977V82.8122H18.6135ZM20.521 90.365H23.8571V86.6276H20.521V90.365ZM23.5789 123.423C22.5449 123.651 21.5245 123.925 20.521 124.254V136.345H23.5789V123.423ZM119.886 124.254C118.883 123.925 117.862 123.651 116.828 123.423V136.344H119.886V124.254ZM128.404 94.1801H12.003V97.238H96.487C97.5404 97.238 98.3945 98.0922 98.3945 99.1456C98.3945 100.199 97.5404 101.053 96.487 101.053H12.003V123.979C13.8784 122.85 15.84 121.906 17.8663 121.144C17.9013 121.13 17.9376 121.118 17.9733 121.105C21.9667 119.617 26.2151 118.846 30.5833 118.846C37.6889 118.846 44.5084 120.884 50.3922 124.752C56.2858 120.883 63.1048 118.846 70.1995 118.846C77.3094 118.846 84.132 120.884 90.0163 124.752C95.9096 120.883 102.729 118.846 109.824 118.846C114.194 118.846 118.444 119.618 122.438 121.106C122.472 121.119 122.507 121.13 122.54 121.144C124.567 121.906 126.528 122.85 128.404 123.979V101.053H103.939C102.886 101.053 102.031 100.2 102.031 99.1459C102.031 98.0924 102.885 97.2383 103.939 97.2383H128.404V94.1801H128.404Z" fill="url(#paint0_linear_2626_23205)"/>
</g>
<defs>
<linearGradient id="paint0_linear_2626_23205" x1="33.3485" y1="140.16" x2="135.467" y2="79.4439" gradientUnits="userSpaceOnUse">
<stop stop-color="#FF9900"/>
<stop offset="1" stop-color="#FF0066"/>
</linearGradient>
<clipPath id="clip0_2626_23205">
<rect width="139.765" height="139.765" fill="white" transform="translate(0.177734 0.529297)"/>
</clipPath>
</defs>
</svg>
